<svg xmlns="http://www.w3.org/2000/svg" viewBox="0 0 900 600" width="900" height="600" role="img" aria-label="Edificio corporativo">
  <defs>
    <linearGradient id="sky" x1="0" y1="0" x2="0" y2="1">
      <stop offset="0%" stop-color="#39445d"/>
      <stop offset="100%" stop-color="#0d1220"/>
    </linearGradient>
    <pattern id="plano" width="45" height="45" patternUnits="userSpaceOnUse">
      <path d="M45 0H0v45" fill="none" stroke="#ffffff" stroke-width="1" opacity="0.06"/>
    </pattern>
  </defs>
  <rect width="900" height="600" fill="url(#sky)"/>
  <rect width="900" height="600" fill="url(#plano)"/>
  <circle cx="740" cy="140" r="70" fill="#d1322d" opacity="0.16"/>
  
    <rect x="180" y="180" width="150" height="360" fill="#1a2032"/>
    <rect x="350" y="120" width="190" height="420" fill="#242c42"/>
    <rect x="560" y="240" width="130" height="300" fill="#1a2032"/>
    <rect x="370" y="145" width="14" height="22" fill="#7e91b0" opacity="0.35"/><rect x="370" y="185" width="14" height="22" fill="#7e91b0" opacity="0.35"/><rect x="370" y="225" width="14" height="22" fill="#7e91b0" opacity="0.35"/><rect x="370" y="265" width="14" height="22" fill="#7e91b0" opacity="0.35"/><rect x="370" y="305" width="14" height="22" fill="#7e91b0" opacity="0.35"/><rect x="370" y="345" width="14" height="22" fill="#7e91b0" opacity="0.35"/><rect x="370" y="385" width="14" height="22" fill="#7e91b0" opacity="0.35"/><rect x="370" y="425" width="14" height="22" fill="#7e91b0" opacity="0.35"/><rect x="396" y="145" width="14" height="22" fill="#7e91b0" opacity="0.35"/><rect x="396" y="185" width="14" height="22" fill="#7e91b0" opacity="0.35"/><rect x="396" y="225" width="14" height="22" fill="#7e91b0" opacity="0.35"/><rect x="396" y="265" width="14" height="22" fill="#7e91b0" opacity="0.35"/><rect x="396" y="305" width="14" height="22" fill="#7e91b0" opacity="0.35"/><rect x="396" y="345" width="14" height="22" fill="#7e91b0" opacity="0.35"/><rect x="396" y="385" width="14" height="22" fill="#7e91b0" opacity="0.35"/><rect x="396" y="425" width="14" height="22" fill="#7e91b0" opacity="0.35"/><rect x="422" y="145" width="14" height="22" fill="#7e91b0" opacity="0.35"/><rect x="422" y="185" width="14" height="22" fill="#7e91b0" opacity="0.35"/><rect x="422" y="225" width="14" height="22" fill="#7e91b0" opacity="0.35"/><rect x="422" y="265" width="14" height="22" fill="#7e91b0" opacity="0.35"/><rect x="422" y="305" width="14" height="22" fill="#7e91b0" opacity="0.35"/><rect x="422" y="345" width="14" height="22" fill="#7e91b0" opacity="0.35"/><rect x="422" y="385" width="14" height="22" fill="#7e91b0" opacity="0.35"/><rect x="422" y="425" width="14" height="22" fill="#7e91b0" opacity="0.35"/><rect x="448" y="145" width="14" height="22" fill="#7e91b0" opacity="0.35"/><rect x="448" y="185" width="14" height="22" fill="#7e91b0" opacity="0.35"/><rect x="448" y="225" width="14" height="22" fill="#7e91b0" opacity="0.35"/><rect x="448" y="265" width="14" height="22" fill="#7e91b0" opacity="0.35"/><rect x="448" y="305" width="14" height="22" fill="#7e91b0" opacity="0.35"/><rect x="448" y="345" width="14" height="22" fill="#7e91b0" opacity="0.35"/><rect x="448" y="385" width="14" height="22" fill="#7e91b0" opacity="0.35"/><rect x="448" y="425" width="14" height="22" fill="#7e91b0" opacity="0.35"/><rect x="474" y="145" width="14" height="22" fill="#7e91b0" opacity="0.35"/><rect x="474" y="185" width="14" height="22" fill="#7e91b0" opacity="0.35"/><rect x="474" y="225" width="14" height="22" fill="#7e91b0" opacity="0.35"/><rect x="474" y="265" width="14" height="22" fill="#7e91b0" opacity="0.35"/><rect x="474" y="305" width="14" height="22" fill="#7e91b0" opacity="0.35"/><rect x="474" y="345" width="14" height="22" fill="#7e91b0" opacity="0.35"/><rect x="474" y="385" width="14" height="22" fill="#7e91b0" opacity="0.35"/><rect x="474" y="425" width="14" height="22" fill="#7e91b0" opacity="0.35"/>
    <rect x="200" y="205" width="14" height="22" fill="#7e91b0" opacity="0.35"/><rect x="200" y="245" width="14" height="22" fill="#7e91b0" opacity="0.35"/><rect x="200" y="285" width="14" height="22" fill="#7e91b0" opacity="0.35"/><rect x="200" y="325" width="14" height="22" fill="#7e91b0" opacity="0.35"/><rect x="200" y="365" width="14" height="22" fill="#7e91b0" opacity="0.35"/><rect x="200" y="405" width="14" height="22" fill="#7e91b0" opacity="0.35"/><rect x="200" y="445" width="14" height="22" fill="#7e91b0" opacity="0.35"/><rect x="226" y="205" width="14" height="22" fill="#7e91b0" opacity="0.35"/><rect x="226" y="245" width="14" height="22" fill="#7e91b0" opacity="0.35"/><rect x="226" y="285" width="14" height="22" fill="#7e91b0" opacity="0.35"/><rect x="226" y="325" width="14" height="22" fill="#7e91b0" opacity="0.35"/><rect x="226" y="365" width="14" height="22" fill="#7e91b0" opacity="0.35"/><rect x="226" y="405" width="14" height="22" fill="#7e91b0" opacity="0.35"/><rect x="226" y="445" width="14" height="22" fill="#7e91b0" opacity="0.35"/><rect x="252" y="205" width="14" height="22" fill="#7e91b0" opacity="0.35"/><rect x="252" y="245" width="14" height="22" fill="#7e91b0" opacity="0.35"/><rect x="252" y="285" width="14" height="22" fill="#7e91b0" opacity="0.35"/><rect x="252" y="325" width="14" height="22" fill="#7e91b0" opacity="0.35"/><rect x="252" y="365" width="14" height="22" fill="#7e91b0" opacity="0.35"/><rect x="252" y="405" width="14" height="22" fill="#7e91b0" opacity="0.35"/><rect x="252" y="445" width="14" height="22" fill="#7e91b0" opacity="0.35"/><rect x="278" y="205" width="14" height="22" fill="#7e91b0" opacity="0.35"/><rect x="278" y="245" width="14" height="22" fill="#7e91b0" opacity="0.35"/><rect x="278" y="285" width="14" height="22" fill="#7e91b0" opacity="0.35"/><rect x="278" y="325" width="14" height="22" fill="#7e91b0" opacity="0.35"/><rect x="278" y="365" width="14" height="22" fill="#7e91b0" opacity="0.35"/><rect x="278" y="405" width="14" height="22" fill="#7e91b0" opacity="0.35"/><rect x="278" y="445" width="14" height="22" fill="#7e91b0" opacity="0.35"/>
    <rect x="700" y="90" width="14" height="450" fill="#d1322d" opacity="0.85"/>
    <rect x="600" y="90" width="114" height="12" fill="#d1322d" opacity="0.85"/>
    <rect x="612" y="102" width="8" height="90" fill="#d1322d" opacity="0.6"/>
  <rect y="540" width="900" height="60" fill="#0d1220"/>
  <rect y="536" width="900" height="6" fill="#d1322d" opacity="0.9"/>
</svg>